<mxfile host="app.diagrams.net" modified="2024-03-02T21:39:20.080Z" agent="Mozilla/5.0 (Macintosh; Intel Mac OS X 10_15_7) AppleWebKit/537.36 (KHTML, like Gecko) Chrome/121.0.0.0 Safari/537.36" version="24.0.1" etag="LexJxT7zT6XBp7B0YGPL" type="github">
  <diagram name="Page-1" id="dGUlkwbcDmwb5b6hUcDH">
    <mxGraphModel>
      <root>
        <mxCell id="0" />
        <mxCell id="1" parent="0" />
      </root>
    </mxGraphModel>
  </diagram>
</mxfile>
